<svg width="24" height="25" viewBox="0 0 24 25" fill="none" xmlns="http://www.w3.org/2000/svg">
<mask id="mask0_95_11710" style="mask-type:alpha" maskUnits="userSpaceOnUse" x="0" y="0" width="24" height="25">
<rect y="0.857178" width="24" height="24" fill="#D9D9D9"/>
</mask>
<g mask="url(#mask0_95_11710)">
<path d="M2 21.8572V19.8572H11V8.68218C10.5667 8.53218 10.1917 8.29884 9.875 7.98218C9.55833 7.66551 9.325 7.29051 9.175 6.85718H6L9 13.8572C9 14.6905 8.65833 15.3988 7.975 15.9822C7.29167 16.5655 6.46667 16.8572 5.5 16.8572C4.53333 16.8572 3.70833 16.5655 3.025 15.9822C2.34167 15.3988 2 14.6905 2 13.8572L5 6.85718H3V4.85718H9.175C9.375 4.27384 9.73333 3.79468 10.25 3.41968C10.7667 3.04468 11.35 2.85718 12 2.85718C12.65 2.85718 13.2333 3.04468 13.75 3.41968C14.2667 3.79468 14.625 4.27384 14.825 4.85718H21V6.85718H19L22 13.8572C22 14.6905 21.6583 15.3988 20.975 15.9822C20.2917 16.5655 19.4667 16.8572 18.5 16.8572C17.5333 16.8572 16.7083 16.5655 16.025 15.9822C15.3417 15.3988 15 14.6905 15 13.8572L18 6.85718H14.825C14.675 7.29051 14.4417 7.66551 14.125 7.98218C13.8083 8.29884 13.4333 8.53218 13 8.68218V19.8572H22V21.8572H2ZM16.625 13.8572H20.375L18.5 9.50718L16.625 13.8572ZM3.625 13.8572H7.375L5.5 9.50718L3.625 13.8572ZM12 6.85718C12.2833 6.85718 12.5208 6.76134 12.7125 6.56968C12.9042 6.37801 13 6.14051 13 5.85718C13 5.57384 12.9042 5.33634 12.7125 5.14468C12.5208 4.95301 12.2833 4.85718 12 4.85718C11.7167 4.85718 11.4792 4.95301 11.2875 5.14468C11.0958 5.33634 11 5.57384 11 5.85718C11 6.14051 11.0958 6.37801 11.2875 6.56968C11.4792 6.76134 11.7167 6.85718 12 6.85718Z" fill="#0F0F70"/>
</g>
</svg>
