<svg width="24" height="25" viewBox="0 0 24 25" fill="none" xmlns="http://www.w3.org/2000/svg">
<mask id="mask0_95_11717" style="mask-type:alpha" maskUnits="userSpaceOnUse" x="0" y="0" width="24" height="25">
<rect y="0.714355" width="24" height="24" fill="#D9D9D9"/>
</mask>
<g mask="url(#mask0_95_11717)">
<path d="M8 18.7144H9.5V16.7144H11.5V15.2144H9.5V13.2144H8V15.2144H6V16.7144H8V18.7144ZM13 17.9644H18V16.4644H13V17.9644ZM13 15.4644H18V13.9644H13V15.4644ZM14.1 11.6644L15.5 10.2644L16.9 11.6644L17.95 10.6144L16.55 9.16436L17.95 7.76436L16.9 6.71436L15.5 8.11436L14.1 6.71436L13.05 7.76436L14.45 9.16436L13.05 10.6144L14.1 11.6644ZM6.25 9.91436H11.25V8.41436H6.25V9.91436ZM5 21.7144C4.45 21.7144 3.97917 21.5185 3.5875 21.1269C3.19583 20.7352 3 20.2644 3 19.7144V5.71436C3 5.16436 3.19583 4.69352 3.5875 4.30186C3.97917 3.91019 4.45 3.71436 5 3.71436H19C19.55 3.71436 20.0208 3.91019 20.4125 4.30186C20.8042 4.69352 21 5.16436 21 5.71436V19.7144C21 20.2644 20.8042 20.7352 20.4125 21.1269C20.0208 21.5185 19.55 21.7144 19 21.7144H5ZM5 19.7144H19V5.71436H5V19.7144Z" fill="#0F0F70"/>
</g>
</svg>
