<svg width="40" height="40" viewBox="0 0 40 40" fill="none" xmlns="http://www.w3.org/2000/svg">
<mask id="mask0_95_11670" style="mask-type:alpha" maskUnits="userSpaceOnUse" x="0" y="0" width="40" height="40">
<rect width="40" height="40" fill="#D9D9D9"/>
</mask>
<g mask="url(#mask0_95_11670)">
<path d="M10.8337 33.3334C8.30588 33.3334 6.14616 32.4584 4.35449 30.7084C2.56283 28.9584 1.66699 26.8195 1.66699 24.2917C1.66699 22.125 2.31977 20.1945 3.62533 18.5C4.93088 16.8056 6.63921 15.7222 8.75033 15.25C9.44477 12.6945 10.8337 10.625 12.917 9.04169C15.0003 7.45835 17.3614 6.66669 20.0003 6.66669C23.2503 6.66669 26.0073 7.79863 28.2712 10.0625C30.535 12.3264 31.667 15.0834 31.667 18.3334C33.5837 18.5556 35.1739 19.382 36.4378 20.8125C37.7017 22.2431 38.3337 23.9167 38.3337 25.8334C38.3337 27.9167 37.6045 29.6875 36.1462 31.1459C34.6878 32.6042 32.917 33.3334 30.8337 33.3334H21.667C20.7503 33.3334 19.9656 33.007 19.3128 32.3542C18.66 31.7014 18.3337 30.9167 18.3337 30V21.4167L15.667 24L13.3337 21.6667L20.0003 15L26.667 21.6667L24.3337 24L21.667 21.4167V30H30.8337C32.0003 30 32.9864 29.5972 33.792 28.7917C34.5975 27.9861 35.0003 27 35.0003 25.8334C35.0003 24.6667 34.5975 23.6806 33.792 22.875C32.9864 22.0695 32.0003 21.6667 30.8337 21.6667H28.3337V18.3334C28.3337 16.0278 27.5212 14.0625 25.8962 12.4375C24.2712 10.8125 22.3059 10 20.0003 10C17.6948 10 15.7295 10.8125 14.1045 12.4375C12.4795 14.0625 11.667 16.0278 11.667 18.3334H10.8337C9.22255 18.3334 7.84755 18.9028 6.70866 20.0417C5.56977 21.1806 5.00033 22.5556 5.00033 24.1667C5.00033 25.7778 5.56977 27.1528 6.70866 28.2917C7.84755 29.4306 9.22255 30 10.8337 30H15.0003V33.3334H10.8337Z" fill="#0F0F70"/>
</g>
</svg>
