<svg width="24" height="25" viewBox="0 0 24 25" fill="none" xmlns="http://www.w3.org/2000/svg">
<mask id="mask0_95_11682" style="mask-type:alpha" maskUnits="userSpaceOnUse" x="0" y="0" width="24" height="25">
<rect y="0.428589" width="24" height="24" fill="#D9D9D9"/>
</mask>
<g mask="url(#mask0_95_11682)">
<path d="M5 21.4286C4.45 21.4286 3.97917 21.2328 3.5875 20.8411C3.19583 20.4494 3 19.9786 3 19.4286V5.42859C3 4.87859 3.19583 4.40776 3.5875 4.01609C3.97917 3.62442 4.45 3.42859 5 3.42859H19C19.55 3.42859 20.0208 3.62442 20.4125 4.01609C20.8042 4.40776 21 4.87859 21 5.42859V19.4286C21 19.9786 20.8042 20.4494 20.4125 20.8411C20.0208 21.2328 19.55 21.4286 19 21.4286H5ZM8 19.4286V5.42859H5V19.4286H8ZM10 19.4286H19V5.42859H10V19.4286Z" fill="#0F0F70"/>
</g>
</svg>
