<svg width="24" height="25" viewBox="0 0 24 25" fill="none" xmlns="http://www.w3.org/2000/svg">
<mask id="mask0_95_11724" style="mask-type:alpha" maskUnits="userSpaceOnUse" x="0" y="0" width="24" height="25">
<rect y="0.571533" width="24" height="24" fill="#D9D9D9"/>
</mask>
<g mask="url(#mask0_95_11724)">
<path d="M12 16.5715L7 11.5715L8.4 10.1215L11 12.7215V4.57153H13V12.7215L15.6 10.1215L17 11.5715L12 16.5715ZM6 20.5715C5.45 20.5715 4.97917 20.3757 4.5875 19.984C4.19583 19.5924 4 19.1215 4 18.5715V15.5715H6V18.5715H18V15.5715H20V18.5715C20 19.1215 19.8042 19.5924 19.4125 19.984C19.0208 20.3757 18.55 20.5715 18 20.5715H6Z" fill="#0F0F70"/>
</g>
</svg>
