<svg width="44" height="44" viewBox="0 0 44 44" fill="none" xmlns="http://www.w3.org/2000/svg">
<mask id="mask0_1238_8485" style="mask-type:alpha" maskUnits="userSpaceOnUse" x="14" y="7" width="16" height="17">
<rect x="14" y="7.5" width="16" height="16" fill="#D9D9D9"/>
</mask>
<g mask="url(#mask0_1238_8485)">
<path d="M17.9998 20.1667H19.9998V16.1667H23.9998V20.1667H25.9998V14.1667L21.9998 11.1667L17.9998 14.1667V20.1667ZM16.6665 21.5V13.5L21.9998 9.5L27.3332 13.5V21.5H22.6665V17.5H21.3332V21.5H16.6665Z" fill="#DBDBDB"/>
</g>
<path d="M19.0803 30.02V29.508H21.6643V28.82H22.3203V29.508H24.8563V30.02H19.0803ZM25.2243 33.396H18.7443V32.876H21.6643V32.332C20.3763 32.276 19.6723 31.932 19.6723 31.316C19.6723 30.644 20.4803 30.3 21.9923 30.3C23.4963 30.3 24.3043 30.644 24.3043 31.316C24.3043 31.932 23.6083 32.276 22.3203 32.332V32.876H25.2243V33.396ZM20.3603 31.316C20.3603 31.676 20.9283 31.876 21.9923 31.876C23.0243 31.876 23.6083 31.676 23.6083 31.316C23.6083 30.964 23.0243 30.764 21.9923 30.764C20.9283 30.764 20.3603 30.964 20.3603 31.316ZM24.4403 33.956V35.996H19.5443V33.956H24.4403ZM23.8003 35.5V34.452H20.1843V35.5H23.8003Z" fill="#DBDBDB"/>
</svg>
