<svg width="1019" height="135" viewBox="0 0 1019 135" fill="none" xmlns="http://www.w3.org/2000/svg">
<path d="M984.226 75.7891H883.834C864.877 75.7891 849.658 60.5478 849.658 41.563C849.658 22.5782 864.877 7.33691 883.834 7.33691H984.226C1003.18 7.33691 1018.4 22.5782 1018.4 41.563C1018.4 60.5478 1003.18 75.7891 984.226 75.7891Z" fill="#FE6500"/>
<path d="M873.154 25.7869H875.557H877.96L887.038 53.0608L896.116 25.7869H898.519H900.922L889.174 57.8738H886.771H884.368L873.154 25.7869Z" fill="white"/>
<path d="M905.995 25.7869H908.131H910.267V57.8738H908.131H905.995V25.7869Z" fill="white"/>
<path d="M925.753 29.5303H914.806V27.6586V25.7869H940.705V27.6586V29.5303H929.758V57.6064H927.622H925.486L925.753 29.5303Z" fill="white"/>
<path d="M954.322 25.7869H956.725H959.128L970.609 57.8738H968.206H965.803L962.599 48.5151H949.783L946.312 57.8738H944.176H942.04L954.322 25.7869ZM951.385 44.7716H961.531L956.458 30.5999L951.385 44.7716Z" fill="white"/>
<path d="M974.614 57.8738V25.7869H976.75H978.886V53.863H995.173V55.7347V57.6064L974.614 57.8738Z" fill="white"/>
<path d="M323.401 52.7933V42.6325H246.505V7.87158H323.401C329.809 7.87158 335.149 8.94115 339.421 11.3477C343.693 13.7542 347.431 16.6955 350.101 20.439C352.771 24.1825 354.907 28.7281 356.242 33.8085C357.577 38.889 358.111 43.9694 358.111 49.5846C358.111 54.9324 357.31 59.7455 355.708 64.2912C354.106 68.8368 351.97 72.8477 349.033 76.3238C346.096 79.7999 342.625 82.4738 338.353 84.6129C334.081 86.752 329.008 87.8216 323.668 87.8216H240.898V132.743H206.188V7.87158H240.898V52.7933H323.401Z" fill="#0F0F70"/>
<path d="M522.85 7.60425V42.3651H433.138C429.4 42.3651 425.929 43.1673 422.458 44.5043C418.987 45.8412 416.05 47.9803 413.647 50.3869C411.244 52.7934 409.108 55.7347 407.773 59.2108C406.171 62.6869 405.637 66.163 405.637 69.9064C405.637 76.0564 406.972 81.1369 409.642 84.8803C412.312 88.6238 415.783 91.5651 420.055 93.7043C424.327 95.8434 429.4 97.1803 434.74 97.7151C440.347 98.5173 445.954 98.7847 451.561 98.7847C457.168 98.7847 462.775 98.5173 467.848 98.2499C473.188 97.9825 477.727 97.7151 481.465 97.7151V132.476H433.138C424.594 132.476 416.584 130.872 408.841 127.663C401.365 124.454 394.69 119.909 389.083 114.293C383.476 108.678 378.937 101.993 375.733 94.5064C372.529 87.0195 370.927 78.7303 370.927 70.1738C370.927 61.6173 372.529 53.5956 375.733 45.8412C378.937 38.3543 383.476 31.6695 389.083 26.0543C394.69 20.439 401.365 15.8934 408.841 12.6847C416.317 9.47599 424.594 7.87165 433.138 7.87165H522.85V7.60425ZM522.85 52.526V132.209H488.407V87.2869H440.08V52.526H522.85Z" fill="#0F0F70"/>
<path d="M536.467 132.476V7.87158H571.177V132.476H536.467ZM578.119 87.5542V52.7933H647.272V7.87158H681.982V87.5542H578.119ZM647.272 132.476V94.239H681.982V132.209H647.272V132.476Z" fill="#0F0F70"/>
<path d="M729.241 97.7151H784.51C788.248 97.7151 791.719 96.9129 795.19 95.5759C798.661 93.9716 801.598 92.0998 804.001 89.6933C806.404 87.2868 808.54 84.3455 809.875 80.8694C811.477 77.3933 812.011 73.9172 812.011 70.1738C812.011 64.0238 810.676 59.2107 808.006 55.4672C805.336 51.7238 801.865 48.7825 797.593 46.6433C793.321 44.5042 788.515 43.1672 782.908 42.6325C777.568 41.8303 771.961 41.5629 766.354 41.5629C760.747 41.5629 755.14 41.8303 749.8 42.0977C744.46 42.3651 739.654 42.6325 735.649 42.6325V7.87158H784.51C793.054 7.87158 801.064 9.47593 808.807 12.6846C816.283 15.8933 822.958 20.439 828.565 26.0542C834.172 31.6694 838.711 38.3542 841.915 45.8411C845.119 53.3281 846.721 61.6172 846.721 70.1738C846.721 78.7303 845.119 86.752 841.915 94.5064C838.711 101.993 834.172 108.678 828.565 114.293C822.958 119.909 816.283 124.454 808.807 127.663C801.331 130.872 793.054 132.476 784.51 132.476H694.531V7.87158H729.241V97.7151Z" fill="#0F0F70"/>
<path d="M861.673 82.2065H867.28H872.887L868.615 99.587L869.683 98.7848C873.154 95.5761 877.426 93.9718 882.499 93.9718C887.038 93.9718 890.242 95.0413 892.378 97.1805C894.514 99.3196 895.048 102.528 893.98 106.272L888.106 131.139H882.499H876.892L882.232 108.678C882.766 106.272 882.499 104.667 881.698 103.598C880.897 102.528 879.295 101.994 876.892 101.994C873.955 101.994 871.552 102.796 869.683 104.133C867.814 105.737 866.479 107.609 865.678 110.283L860.605 131.139H854.998H849.391L861.673 82.2065Z" fill="#37377C"/>
<path d="M912.937 117.502C912.403 119.909 912.403 121.513 913.471 122.583C914.272 123.652 915.874 124.187 918.277 124.187C921.214 124.187 923.617 123.385 925.486 122.048C927.355 120.443 928.69 118.572 929.224 115.898L934.297 95.0413H939.904H945.511L936.967 131.406H931.627H926.287L927.622 126.059C927.088 126.593 926.554 127.128 926.02 127.663C922.549 130.872 918.277 132.476 913.204 132.476C908.665 132.476 905.461 131.139 903.325 128.733C901.99 127.128 901.456 125.256 901.456 122.85C901.456 121.513 901.723 120.176 901.99 118.839L907.597 95.3086H913.204H918.811L912.937 117.502Z" fill="#37377C"/>
<path d="M958.06 82.2065H963.667H969.274L965.002 99.3196C969.274 95.5761 973.813 93.9718 978.619 93.9718C982.891 93.9718 986.095 95.0413 988.498 97.4478C990.901 99.587 992.236 102.796 992.236 106.807C992.236 107.609 992.236 108.678 991.969 110.015C991.702 111.085 991.702 112.154 991.435 113.224C990.1 118.572 987.43 123.385 983.158 126.861C978.886 130.604 974.347 132.209 969.274 132.209C964.201 132.209 960.73 130.604 958.594 127.128L958.06 126.326L956.992 131.407H946.312L958.06 82.2065ZM968.473 124.454C971.143 124.454 973.813 123.385 975.949 121.513C978.085 119.641 979.687 116.967 980.488 113.759C980.755 112.957 980.755 112.422 981.022 111.62C981.022 110.817 981.289 110.283 981.289 109.48C981.289 107.341 980.755 105.47 979.42 104.4C978.085 103.063 976.483 102.528 974.08 102.528C971.41 102.528 969.007 103.598 966.604 105.47C964.468 107.341 962.866 110.015 962.332 113.224C961.531 116.967 961.531 119.641 962.599 121.78C963.4 123.385 965.536 124.454 968.473 124.454Z" fill="#37377C"/>
<path d="M33.973 74.4521C29.167 74.4521 24.361 76.3238 19.555 74.9869C6.73896 71.7782 -1.27104 60.2803 1.39896 47.7129C3.80196 35.9477 15.817 27.3912 27.298 28.9956C40.381 31.1347 48.925 42.6325 47.323 55.7347C45.187 72.8477 52.93 81.939 70.018 82.4738C80.431 82.7412 87.64 89.9608 87.373 99.5869C87.106 108.411 80.164 115.363 71.353 115.363C61.741 115.63 53.998 108.143 54.532 97.7151C55.6 83.5434 43.852 73.9173 33.973 74.4521Z" fill="#FE6500"/>
<path d="M76.4261 36.4825C91.6451 37.8195 98.8541 31.1347 99.3881 15.626C99.6551 6.8021 105.796 0.384708 114.073 0.652099C122.083 0.919491 127.957 6.8021 128.224 14.8238C128.491 23.113 122.35 29.5304 113.539 29.7978C97.2521 30.5999 90.5771 38.0869 92.7131 53.5956C94.3151 65.8956 86.0381 76.3238 74.2901 77.126C62.2751 77.9282 51.8621 68.3021 51.8621 56.2695C51.8621 44.5043 62.0081 35.413 74.2901 36.2151C74.8241 36.2151 75.6251 36.2151 76.4261 36.4825Z" fill="#0F0F70"/>
<path d="M142.375 51.4564C141.574 63.7564 147.181 69.9064 159.73 70.4412C167.206 70.7086 172.546 75.5216 172.546 82.4738C172.546 88.6238 166.939 94.239 160.798 94.5064C154.123 94.7738 148.783 89.426 148.249 81.939C147.448 67.7673 141.841 63.2217 127.957 64.5586C117.811 65.6282 109 58.1412 108.466 48.2477C107.932 38.6217 115.942 30.3325 125.821 30.3325C135.967 30.3325 142.909 38.0869 142.642 48.5151C142.642 49.8521 142.375 50.6543 142.375 51.4564Z" fill="#0F0F70"/>
<path d="M120.481 78.1955C129.025 78.1955 135.967 85.415 135.7 93.7042C135.433 102.528 127.957 109.213 119.146 108.411C106.33 107.341 101.791 111.085 100.456 124.454C99.9221 130.337 95.917 134.348 90.31 134.348C84.703 134.348 79.897 130.337 79.363 124.722C78.829 119.106 82.3 114.561 87.907 113.224C88.975 112.956 90.0431 112.956 91.1111 112.689C102.325 111.619 106.33 106.806 105.262 95.8433C104.461 85.9498 110.869 77.9281 120.481 78.1955Z" fill="#0F0F70"/>
</svg>
