<svg width="40" height="40" viewBox="0 0 40 40" fill="none" xmlns="http://www.w3.org/2000/svg">
<mask id="mask0_95_11675" style="mask-type:alpha" maskUnits="userSpaceOnUse" x="0" y="0" width="40" height="40">
<rect width="40" height="40" fill="#D9D9D9"/>
</mask>
<g mask="url(#mask0_95_11675)">
<path d="M19.9997 33.3333C22.083 33.3333 23.8538 32.6041 25.3122 31.1458C26.7705 29.6875 27.4997 27.9166 27.4997 25.8333C27.4997 23.75 26.7705 21.9791 25.3122 20.5208C23.8538 19.0625 22.083 18.3333 19.9997 18.3333C17.9163 18.3333 16.1455 19.0625 14.6872 20.5208C13.2288 21.9791 12.4997 23.75 12.4997 25.8333C12.4997 27.9166 13.2288 29.6875 14.6872 31.1458C16.1455 32.6041 17.9163 33.3333 19.9997 33.3333ZM15.1247 16.1666C15.6802 15.8611 16.2705 15.618 16.8955 15.4375C17.5205 15.2569 18.1525 15.1389 18.7913 15.0833L14.583 6.66665H10.4163L15.1247 16.1666ZM24.8747 16.1666L29.6247 6.66665H25.4163L21.8747 13.75L22.6663 15.3333C23.0552 15.4444 23.4302 15.5625 23.7913 15.6875C24.1525 15.8125 24.5136 15.9722 24.8747 16.1666ZM10.6663 31.3333C10.1941 30.5278 9.82606 29.6597 9.56217 28.7291C9.29829 27.7986 9.16634 26.8333 9.16634 25.8333C9.16634 24.8333 9.29829 23.868 9.56217 22.9375C9.82606 22.0069 10.1941 21.1389 10.6663 20.3333C9.49967 20.7222 8.54134 21.4097 7.79134 22.3958C7.04134 23.3819 6.66634 24.5278 6.66634 25.8333C6.66634 27.1389 7.04134 28.2847 7.79134 29.2708C8.54134 30.2569 9.49967 30.9444 10.6663 31.3333ZM29.333 31.3333C30.4997 30.9444 31.458 30.2569 32.208 29.2708C32.958 28.2847 33.333 27.1389 33.333 25.8333C33.333 24.5278 32.958 23.3819 32.208 22.3958C31.458 21.4097 30.4997 20.7222 29.333 20.3333C29.8052 21.1389 30.1733 22.0069 30.4372 22.9375C30.7011 23.868 30.833 24.8333 30.833 25.8333C30.833 26.8333 30.7011 27.7986 30.4372 28.7291C30.1733 29.6597 29.8052 30.5278 29.333 31.3333ZM19.9997 36.6666C18.8886 36.6666 17.8261 36.5069 16.8122 36.1875C15.7983 35.868 14.8608 35.4305 13.9997 34.875C13.7497 34.9305 13.4997 34.9653 13.2497 34.9791C12.9997 34.993 12.7358 35 12.458 35C9.93023 35 7.77745 34.1111 5.99967 32.3333C4.2219 30.5555 3.33301 28.4028 3.33301 25.875C3.33301 23.4583 4.13856 21.3889 5.74967 19.6666C7.36079 17.9444 9.3469 16.9861 11.708 16.7916L4.99967 3.33331H16.6663L19.9997 9.99998L23.333 3.33331H34.9997L28.333 16.7083C30.6941 16.9305 32.6733 17.9028 34.2705 19.625C35.8677 21.3472 36.6663 23.4166 36.6663 25.8333C36.6663 28.3889 35.7775 30.5555 33.9997 32.3333C32.2219 34.1111 30.0552 35 27.4997 35C27.2497 35 26.9927 34.993 26.7288 34.9791C26.465 34.9653 26.208 34.9305 25.958 34.875C25.0969 35.4305 24.1663 35.868 23.1663 36.1875C22.1663 36.5069 21.1108 36.6666 19.9997 36.6666ZM16.9163 30.4166L18.083 26.625L14.9997 24.4166H18.7913L19.9997 20.4166L21.208 24.4166H24.9997L21.9163 26.625L23.083 30.4166L19.9997 28.0833L16.9163 30.4166Z" fill="#0F0F70"/>
</g>
</svg>
