<svg width="44" height="44" viewBox="0 0 44 44" fill="none" xmlns="http://www.w3.org/2000/svg">
<path d="M16.84 20C17.68 19.4133 18.5133 18.9633 19.34 18.65C20.1667 18.3367 21.0533 18.18 22 18.18C22.9467 18.18 23.8367 18.3367 24.67 18.65C25.5033 18.9633 26.34 19.4133 27.18 20C27.7667 19.28 28.1833 18.5533 28.43 17.82C28.6767 17.0867 28.8 16.3133 28.8 15.5C28.8 13.5667 28.15 11.95 26.85 10.65C25.55 9.35 23.9333 8.7 22 8.7C20.0667 8.7 18.45 9.35 17.15 10.65C15.85 11.95 15.2 13.5667 15.2 15.5C15.2 16.3133 15.3267 17.0867 15.58 17.82C15.8333 18.5533 16.2533 19.28 16.84 20ZM22 16.1C21.2267 16.1 20.5767 15.8367 20.05 15.31C19.5233 14.7833 19.26 14.1333 19.26 13.36C19.26 12.5867 19.5233 11.9367 20.05 11.41C20.5767 10.8833 21.2267 10.62 22 10.62C22.7733 10.62 23.4233 10.8833 23.95 11.41C24.4767 11.9367 24.74 12.5867 24.74 13.36C24.74 14.1333 24.4767 14.7833 23.95 15.31C23.4233 15.8367 22.7733 16.1 22 16.1ZM22 23.5C20.9067 23.5 19.8733 23.29 18.9 22.87C17.9267 22.45 17.0767 21.8767 16.35 21.15C15.6233 20.4233 15.05 19.5733 14.63 18.6C14.21 17.6267 14 16.5933 14 15.5C14 14.3933 14.21 13.3567 14.63 12.39C15.05 11.4233 15.6233 10.5767 16.35 9.85C17.0767 9.12333 17.9267 8.55 18.9 8.13C19.8733 7.71 20.9067 7.5 22 7.5C23.1067 7.5 24.1433 7.71 25.11 8.13C26.0767 8.55 26.9233 9.12333 27.65 9.85C28.3767 10.5767 28.95 11.4233 29.37 12.39C29.79 13.3567 30 14.3933 30 15.5C30 16.5933 29.79 17.6267 29.37 18.6C28.95 19.5733 28.3767 20.4233 27.65 21.15C26.9233 21.8767 26.0767 22.45 25.11 22.87C24.1433 23.29 23.1067 23.5 22 23.5ZM22 22.3C22.7333 22.3 23.45 22.1933 24.15 21.98C24.85 21.7667 25.54 21.3933 26.22 20.86C25.54 20.38 24.8467 20.0133 24.14 19.76C23.4333 19.5067 22.72 19.38 22 19.38C21.28 19.38 20.5667 19.5067 19.86 19.76C19.1533 20.0133 18.46 20.38 17.78 20.86C18.46 21.3933 19.15 21.7667 19.85 21.98C20.55 22.1933 21.2667 22.3 22 22.3ZM22 14.9C22.4533 14.9 22.8233 14.7567 23.11 14.47C23.3967 14.1833 23.54 13.8133 23.54 13.36C23.54 12.9067 23.3967 12.5367 23.11 12.25C22.8233 11.9633 22.4533 11.82 22 11.82C21.5467 11.82 21.1767 11.9633 20.89 12.25C20.6033 12.5367 20.46 12.9067 20.46 13.36C20.46 13.8133 20.6033 14.1833 20.89 14.47C21.1767 14.7567 21.5467 14.9 22 14.9Z" fill="#DBDBDB"/>
<path d="M7.89725 30.324V29.796H9.75325V28.924H10.4093V29.796H12.2573V30.324H7.89725ZM13.5533 36.092H12.8973V28.924H13.5533V36.092ZM10.4093 34.124C11.0893 34.092 11.7693 34.044 12.4413 33.956L12.4893 34.444C10.8893 34.7 9.16925 34.732 7.84125 34.732L7.74525 34.18C8.35325 34.18 9.04125 34.172 9.75325 34.148V33.38C8.88925 33.276 8.35325 32.796 8.35325 32.06C8.35325 31.252 9.04925 30.732 10.0813 30.732C11.1053 30.732 11.8012 31.252 11.8012 32.06C11.8012 32.772 11.2733 33.268 10.4093 33.372V34.124ZM8.97725 32.06C8.97725 32.572 9.40925 32.876 10.0813 32.876C10.7293 32.876 11.1773 32.572 11.1773 32.06C11.1773 31.548 10.7293 31.236 10.0813 31.236C9.40925 31.236 8.97725 31.548 8.97725 32.06ZM20.2806 28.916H20.9366V34.38H20.2806V33.644H18.8246V33.156H20.2806V28.916ZM17.3606 31.708C16.3126 31.708 15.5926 31.22 15.5926 30.452C15.5926 29.7 16.3126 29.204 17.3606 29.204C18.4086 29.204 19.1286 29.7 19.1286 30.452C19.1286 31.22 18.4086 31.708 17.3606 31.708ZM17.3606 29.692C16.6806 29.692 16.2166 29.996 16.2166 30.452C16.2166 30.932 16.6806 31.22 17.3606 31.22C18.0406 31.22 18.5046 30.932 18.5046 30.452C18.5046 29.996 18.0406 29.692 17.3606 29.692ZM17.1046 32.74C16.3926 32.772 15.7206 32.78 15.1126 32.78L15.0246 32.236C16.3526 32.236 18.1286 32.22 19.6486 32.028L19.7046 32.5C19.0646 32.596 18.4086 32.668 17.7606 32.708V34.124H17.1046V32.74ZM21.1206 35.932H16.0486V33.844H16.7046V35.396H21.1206V35.932ZM27.672 28.924H28.336V33.196H27.672V31.316H26.256V30.78H27.672V28.924ZM26.328 32.924C25.528 32.636 24.912 32.044 24.6 31.308C24.288 32.14 23.632 32.812 22.792 33.132L22.448 32.612C23.512 32.228 24.256 31.244 24.256 30.22V29.972H22.656V29.444H26.488V29.972H24.912V30.22C24.912 31.14 25.616 32.052 26.656 32.412L26.328 32.924ZM25.968 33.42C27.44 33.42 28.352 33.9 28.352 34.756C28.352 35.612 27.44 36.092 25.968 36.092C24.496 36.092 23.576 35.612 23.576 34.756C23.576 33.9 24.496 33.42 25.968 33.42ZM25.968 35.58C27.064 35.58 27.704 35.276 27.704 34.756C27.704 34.236 27.064 33.924 25.968 33.924C24.872 33.924 24.232 34.236 24.232 34.756C24.232 35.276 24.872 35.58 25.968 35.58ZM36.2874 35.172H29.7834V34.636H32.6954V33.092H30.5514V29.428H31.1994V30.708H34.8634V29.428H35.5034V33.092H33.3594V34.636H36.2874V35.172ZM34.8634 32.564V31.244H31.1994V32.564H34.8634Z" fill="#DBDBDB"/>
</svg>
