<svg width="24" height="25" viewBox="0 0 24 25" fill="none" xmlns="http://www.w3.org/2000/svg">
<mask id="mask0_95_11696" style="mask-type:alpha" maskUnits="userSpaceOnUse" x="0" y="0" width="24" height="25">
<rect y="0.142944" width="24" height="24" fill="#D9D9D9"/>
</mask>
<g mask="url(#mask0_95_11696)">
<path d="M12 16.1429C13.25 16.1429 14.3125 15.7054 15.1875 14.8304C16.0625 13.9554 16.5 12.8929 16.5 11.6429C16.5 10.3929 16.0625 9.33044 15.1875 8.45544C14.3125 7.58044 13.25 7.14294 12 7.14294C10.75 7.14294 9.6875 7.58044 8.8125 8.45544C7.9375 9.33044 7.5 10.3929 7.5 11.6429C7.5 12.8929 7.9375 13.9554 8.8125 14.8304C9.6875 15.7054 10.75 16.1429 12 16.1429ZM12 14.3429C11.25 14.3429 10.6125 14.0804 10.0875 13.5554C9.5625 13.0304 9.3 12.3929 9.3 11.6429C9.3 10.8929 9.5625 10.2554 10.0875 9.73044C10.6125 9.20544 11.25 8.94294 12 8.94294C12.75 8.94294 13.3875 9.20544 13.9125 9.73044C14.4375 10.2554 14.7 10.8929 14.7 11.6429C14.7 12.3929 14.4375 13.0304 13.9125 13.5554C13.3875 14.0804 12.75 14.3429 12 14.3429ZM12 19.1429C9.56667 19.1429 7.35 18.4638 5.35 17.1054C3.35 15.7471 1.9 13.9263 1 11.6429C1.9 9.35961 3.35 7.53878 5.35 6.18044C7.35 4.82211 9.56667 4.14294 12 4.14294C14.4333 4.14294 16.65 4.82211 18.65 6.18044C20.65 7.53878 22.1 9.35961 23 11.6429C22.1 13.9263 20.65 15.7471 18.65 17.1054C16.65 18.4638 14.4333 19.1429 12 19.1429ZM12 17.1429C13.8833 17.1429 15.6125 16.6471 17.1875 15.6554C18.7625 14.6638 19.9667 13.3263 20.8 11.6429C19.9667 9.95961 18.7625 8.62211 17.1875 7.63044C15.6125 6.63878 13.8833 6.14294 12 6.14294C10.1167 6.14294 8.3875 6.63878 6.8125 7.63044C5.2375 8.62211 4.03333 9.95961 3.2 11.6429C4.03333 13.3263 5.2375 14.6638 6.8125 15.6554C8.3875 16.6471 10.1167 17.1429 12 17.1429Z" fill="#0F0F70"/>
</g>
</svg>
