<svg width="44" height="44" viewBox="0 0 44 44" fill="none" xmlns="http://www.w3.org/2000/svg">
<rect width="44" height="44" rx="4" fill="white" fill-opacity="0.2"/>
<path d="M14 13.7V10.3C14 9.97998 14.12 9.69998 14.36 9.45998C14.6 9.21998 14.88 9.09998 15.2 9.09998H28.8C29.12 9.09998 29.4 9.21998 29.64 9.45998C29.88 9.69998 30 9.97998 30 10.3V13.7H28.8V10.3H15.2V13.7H14ZM15.2 21.9C14.88 21.9 14.6 21.78 14.36 21.54C14.12 21.3 14 21.02 14 20.7V17.3H15.2V20.7H28.8V17.3H30V20.7C30 21.02 29.88 21.3 29.64 21.54C29.4 21.78 29.12 21.9 28.8 21.9H15.2ZM20.4 19.3C20.5067 19.3 20.61 19.2733 20.71 19.22C20.81 19.1666 20.8867 19.0866 20.94 18.98L23.6 13.66L24.66 15.78C24.7133 15.8866 24.79 15.9666 24.89 16.02C24.99 16.0733 25.0933 16.1 25.2 16.1H30V14.9H25.58L24.14 12.04C24.0333 11.84 23.8533 11.74 23.6 11.74C23.3467 11.74 23.1667 11.84 23.06 12.04L20.4 17.34L19.34 15.22C19.2867 15.1133 19.21 15.0333 19.11 14.98C19.01 14.9266 18.9067 14.9 18.8 14.9H14V16.1H18.42L19.86 18.98C19.9133 19.0866 19.99 19.1666 20.09 19.22C20.19 19.2733 20.2933 19.3 20.4 19.3Z" fill="white"/>
<path d="M15.0515 29.556L15.8675 32.028C16.0035 32.452 16.1395 32.9 16.2755 33.308H16.3075C16.4355 32.9 16.5795 32.452 16.7075 32.028L17.5315 29.556H18.2515L16.7075 33.9H15.8595L14.2915 29.556H15.0515ZM18.9594 29.556H19.6874V33.9H18.9594V29.556ZM18.9674 28.66V27.908H19.6954V28.66H18.9674ZM22.3931 34.004C21.4651 34.004 21.1531 33.428 21.1531 32.556V30.148H20.5051V29.596L21.1851 29.556L21.2731 28.34H21.8811V29.556H23.0571V30.148H21.8811V32.572C21.8811 33.116 22.0411 33.412 22.5531 33.412C22.7051 33.412 22.8971 33.356 23.0491 33.3L23.1931 33.844C22.9451 33.932 22.6571 34.004 22.3931 34.004ZM24.8374 34.004C24.1094 34.004 23.5734 33.524 23.5734 32.732C23.5734 31.612 24.5254 31.172 26.2454 31.148C26.2454 30.588 26.0614 30.052 25.3494 30.052C24.8374 30.052 24.3494 30.244 24.0054 30.476L23.7174 29.956C24.1254 29.7 24.7654 29.444 25.4694 29.444C26.5254 29.444 26.9734 30.164 26.9734 31.228V33.9H26.3734L26.3094 33.436H26.2854C25.8694 33.78 25.3814 34.004 24.8374 34.004ZM25.0454 33.42C25.4694 33.42 25.8214 33.292 26.2454 32.916V31.628C24.7014 31.732 24.2854 32.012 24.2854 32.684C24.2854 33.196 24.5974 33.42 25.0454 33.42ZM28.361 27.532H29.089V33.9H28.361V27.532Z" fill="white"/>
</svg>
